<?xml version="1.0" encoding="UTF-8" standalone="no"?>
<!-- Created with Inkscape (http://www.inkscape.org/) -->

<svg
   width="1200"
   height="630"
   viewBox="0 0 1200 630"
   version="1.1"
   id="svg1"
   sodipodi:docname="social_why.svg"
   inkscape:version="1.4.2 (ebf0e940d0, 2025-05-08)"
   inkscape:export-filename="social_why.jpg"
   inkscape:export-xdpi="96"
   inkscape:export-ydpi="96"
   xmlns:inkscape="http://www.inkscape.org/namespaces/inkscape"
   xmlns:sodipodi="http://sodipodi.sourceforge.net/DTD/sodipodi-0.dtd"
   xmlns:xlink="http://www.w3.org/1999/xlink"
   xmlns="http://www.w3.org/2000/svg"
   xmlns:svg="http://www.w3.org/2000/svg">
  <sodipodi:namedview
     id="namedview24"
     pagecolor="#505050"
     bordercolor="#eeeeee"
     borderopacity="1"
     inkscape:showpageshadow="0"
     inkscape:pageopacity="0"
     inkscape:pagecheckerboard="0"
     inkscape:deskcolor="#d1d1d1"
     inkscape:zoom="1.0556094"
     inkscape:cx="432.45162"
     inkscape:cy="452.34535"
     inkscape:window-width="3840"
     inkscape:window-height="2067"
     inkscape:window-x="0"
     inkscape:window-y="0"
     inkscape:window-maximized="1"
     inkscape:current-layer="layer1" />
  <defs
     id="defs1">
    <linearGradient
       id="linearGradient3">
      <stop
         style="stop-color:#7a2832;stop-opacity:1;"
         offset="0"
         id="stop3" />
      <stop
         style="stop-color:#6b3580;stop-opacity:1;"
         offset="0.35"
         id="stop4" />
      <stop
         style="stop-color:#1e5d6e;stop-opacity:1;"
         offset="0.65"
         id="stop5" />
      <stop
         style="stop-color:#1d2870;stop-opacity:1;"
         offset="1"
         id="stop6" />
    </linearGradient>
    <linearGradient
       xlink:href="#linearGradient3"
       id="linearGradient4"
       x1="0"
       y1="0"
       x2="1200"
       y2="630"
       gradientUnits="userSpaceOnUse" />
    <linearGradient
       id="gradient-books"
       x1="125"
       y1="365"
       x2="235"
       y2="475"
       gradientUnits="userSpaceOnUse">
      <stop
         style="stop-color:#4855d9;stop-opacity:1;"
         offset="0"
         id="stop1" />
      <stop
         style="stop-color:#a86fbe;stop-opacity:1;"
         offset="1"
         id="stop2" />
    </linearGradient>
    <linearGradient
       id="gradient-videos"
       x1="310"
       y1="290"
       x2="450"
       y2="430"
       gradientUnits="userSpaceOnUse">
      <stop
         style="stop-color:#e975b5;stop-opacity:1;"
         offset="0"
         id="stop7" />
      <stop
         style="stop-color:#d9453f;stop-opacity:1;"
         offset="1"
         id="stop8" />
    </linearGradient>
    <linearGradient
       id="gradient-images"
       x1="550"
       y1="430"
       x2="650"
       y2="530"
       gradientUnits="userSpaceOnUse">
      <stop
         style="stop-color:#7a9520;stop-opacity:1;"
         offset="0"
         id="stop9" />
      <stop
         style="stop-color:#e9b535;stop-opacity:1;"
         offset="1"
         id="stop10" />
    </linearGradient>
    <linearGradient
       id="gradient-music"
       x1="755"
       y1="295"
       x2="885"
       y2="425"
       gradientUnits="userSpaceOnUse">
      <stop
         style="stop-color:#257a4a;stop-opacity:1;"
         offset="0"
         id="stop11" />
      <stop
         style="stop-color:#45c4c4;stop-opacity:1;"
         offset="1"
         id="stop12" />
    </linearGradient>
    <linearGradient
       id="gradient-scripture"
       x1="962"
       y1="382"
       x2="1078"
       y2="498"
       gradientUnits="userSpaceOnUse">
      <stop
         style="stop-color:#c9557a;stop-opacity:1;"
         offset="0"
         id="stop13" />
      <stop
         style="stop-color:#c9a535;stop-opacity:1;"
         offset="1"
         id="stop14" />
    </linearGradient>
    <linearGradient
       id="gradient-software"
       x1="232"
       y1="492"
       x2="328"
       y2="588"
       gradientUnits="userSpaceOnUse">
      <stop
         style="stop-color:#30c4b5;stop-opacity:1;"
         offset="0"
         id="stop15" />
      <stop
         style="stop-color:#5540d9;stop-opacity:1;"
         offset="1"
         id="stop16" />
    </linearGradient>
    <linearGradient
       id="gradient-other"
       x1="868"
       y1="498"
       x2="972"
       y2="602"
       gradientUnits="userSpaceOnUse">
      <stop
         style="stop-color:#55a8a5;stop-opacity:1;"
         offset="0"
         id="stop17" />
      <stop
         style="stop-color:#c9578a;stop-opacity:1;"
         offset="1"
         id="stop18" />
    </linearGradient>
  </defs>
  <g
     id="layer1">
    <rect
       style="fill:url(#linearGradient4);stroke:none;stroke-width:373.976;stroke-linecap:round;stroke-linejoin:bevel;stroke-opacity:1"
       id="rect2"
       width="1200"
       height="630"
       x="0"
       y="0" />
    <rect
       style="fill:#000000;stroke:none;stroke-width:373.976;stroke-linecap:round;stroke-linejoin:bevel;stroke-opacity:1;fill-opacity:0"
       id="rect2-2"
       width="1200"
       height="630"
       x="0"
       y="0" />
    <text
       xml:space="preserve"
       style="font-style:normal;font-variant:normal;font-weight:normal;font-stretch:normal;font-size:96px;line-height:normal;font-family:Roboto;-inkscape-font-specification:Roboto;text-align:center;text-decoration-color:#000000;writing-mode:lr-tb;direction:ltr;text-anchor:middle;white-space:pre;fill:#ffffff;stroke:none;stroke-width:373.976;stroke-linecap:round;stroke-linejoin:bevel"
       x="597.79688"
       y="340.75781"
       id="text1"><tspan
         id="tspan1"
         x="597.79688"
         y="340.75781"
         style="font-style:normal;font-variant:normal;font-weight:normal;font-stretch:normal;font-family:Roboto;-inkscape-font-specification:Roboto">Freely Give</tspan></text>
    <text
       xml:space="preserve"
       style="font-style:normal;font-variant:normal;font-weight:300;font-stretch:normal;font-size:64px;line-height:normal;font-family:Roboto;-inkscape-font-specification:'Roboto Light';text-align:center;text-decoration-color:#000000;writing-mode:lr-tb;direction:ltr;text-anchor:middle;white-space:pre;fill:#ffffff;stroke:none;stroke-width:373.976;stroke-linecap:round;stroke-linejoin:bevel"
       x="599.70312"
       y="449.24219"
       id="text2"><tspan
         id="tspan2"
         x="599.70312"
         y="449.24219"
         style="font-style:normal;font-variant:normal;font-weight:300;font-stretch:normal;font-size:64px;font-family:Roboto;-inkscape-font-specification:'Roboto Light'">Christian Resources</tspan></text>
    <!-- Icons -->
    <g
       id="g8"
       style="opacity:0.42747529">
      <g
         id="g1"
         transform="translate(672.64536,-332.29676)">
        <circle
           style="fill:url(#gradient-books);fill-opacity:0.95;stroke:none;stroke-width:224.386;stroke-linecap:round;stroke-linejoin:bevel;stroke-opacity:1"
           id="circle-books"
           cx="180"
           cy="420"
           r="55" />
        <g
           id="icon-books"
           transform="matrix(2,0,0,2,179.99999,423.5)">
          <path
             d="M 12,20 Q 10.8,19.05 9.4,18.525 8,18 6.5,18 5.45,18 4.438,18.275 3.426,18.55 2.5,19.05 1.975,19.325 1.488,19.025 1.001,18.725 1,18.15 V 6.1 Q 1,5.825 1.138,5.575 1.276,5.325 1.55,5.2 2.7,4.6 3.95,4.3 5.2,4 6.5,4 7.95,4 9.338,4.375 10.726,4.75 12,5.5 v 12.1 q 1.275,-0.8 2.675,-1.2 1.4,-0.4 2.825,-0.4 0.9,0 1.763,0.15 0.863,0.15 1.737,0.45 v -12 q 0.375,0.125 0.738,0.263 0.363,0.138 0.712,0.337 0.275,0.125 0.413,0.375 Q 23.001,5.825 23,6.1 v 12.05 q 0,0.575 -0.487,0.875 -0.487,0.3 -1.013,0.025 -0.925,-0.5 -1.937,-0.775 Q 18.551,18 17.5,18 16,18 14.6,18.525 13.2,19.05 12,20 m 2,-5 V 5.5 l 5,-5 v 10 z"
             transform="translate(-12,-12)"
             fill="#ffffff"
             fill-opacity="0.95"
             id="path18" />
        </g>
      </g>
      <g
         id="g5"
         transform="matrix(1.4445117,0,0,1.4445117,-140.45842,-304.49053)">
        <circle
           style="fill:url(#gradient-music);fill-opacity:0.95;stroke:none;stroke-width:224.386;stroke-linecap:round;stroke-linejoin:bevel;stroke-opacity:1"
           id="circle-music"
           cx="820"
           cy="360"
           r="65" />
        <g
           id="icon-music"
           transform="matrix(2.8888889,0,0,2.8888889,820,360)">
          <path
             d="M 10,21 Q 8.35,21 7.175,19.825 6,18.65 6,17 6,15.35 7.175,14.175 8.35,13 10,13 q 0.575,0 1.063,0.138 0.488,0.138 0.937,0.412 V 3 h 6 v 4 h -4 v 10 q 0,1.65 -1.175,2.825 Q 11.65,21 10,21"
             transform="translate(-12,-12)"
             fill="#ffffff"
             fill-opacity="0.95"
             id="path19" />
        </g>
      </g>
      <g
         id="g2"
         transform="matrix(1.3112624,0,0,1.3112624,-337.11063,11.097175)">
        <circle
           style="fill:url(#gradient-videos);fill-opacity:0.95;stroke:none;stroke-width:224.386;stroke-linecap:round;stroke-linejoin:bevel;stroke-opacity:1"
           id="circle-videos"
           cx="380"
           cy="360"
           r="70" />
        <g
           id="icon-videos"
           transform="matrix(2.7999982,0,0,2.7999982,379.99999,359.99999)">
          <path
             d="m 9.5,16.5 7,-4.5 -7,-4.5 z M 12,22 Q 9.925,22 8.1,21.212 6.275,20.424 4.925,19.075 3.575,17.726 2.788,15.9 2.001,14.074 2,12 1.999,9.926 2.788,8.1 3.577,6.274 4.925,4.925 6.273,3.576 8.1,2.788 9.927,2 12,2 q 2.073,0 3.9,0.788 1.827,0.788 3.175,2.137 1.348,1.349 2.138,3.175 0.79,1.826 0.787,3.9 -0.003,2.074 -0.788,3.9 -0.785,1.826 -2.137,3.175 Q 17.723,20.424 15.9,21.213 14.077,22.002 12,22"
             transform="translate(-12,-12)"
             fill="#ffffff"
             fill-opacity="0.95"
             id="path20" />
        </g>
      </g>
      <g
         id="g4"
         transform="matrix(1.4736601,0,0,1.4736601,-626.1786,-590.18041)">
        <circle
           style="fill:url(#gradient-images);fill-opacity:0.95;stroke:none;stroke-width:224.386;stroke-linecap:round;stroke-linejoin:bevel;stroke-opacity:1"
           id="circle-images"
           cx="600"
           cy="480"
           r="50" />
        <g
           id="icon-images"
           transform="matrix(2.222222,0,0,2.222222,600,480)">
          <path
             d="M 5,21 Q 4.175,21 3.588,20.413 3.001,19.826 3,19 V 5 Q 3,4.175 3.588,3.588 4.176,3.001 5,3 H 19 Q 19.825,3 20.413,3.588 21.001,4.176 21,5 v 14 q 0,0.825 -0.587,1.413 Q 19.826,21.001 19,21 Z m 1,-4 h 12 l -3.75,-5 -3,4 L 9,13 Z"
             transform="translate(-12,-12)"
             fill="#ffffff"
             fill-opacity="0.95"
             id="path21" />
        </g>
      </g>
      <g
         id="g3"
         transform="translate(133.4375,65.608596)">
        <circle
           style="fill:url(#gradient-software);fill-opacity:0.95;stroke:none;stroke-width:224.386;stroke-linecap:round;stroke-linejoin:bevel;stroke-opacity:1"
           id="circle-software"
           cx="280"
           cy="540"
           r="48" />
        <g
           id="icon-software"
           transform="matrix(2.3749975,0,0,2.3749975,279.99998,539.99998)">
          <path
             d="M 6,20 Q 5.175,20 4.588,19.413 4.001,18.826 4,18 3.999,17.174 4.588,16.588 5.177,16.002 6,16 6.823,15.998 7.413,16.588 8.003,17.178 8,18 7.997,18.822 7.413,19.413 6.829,20.004 6,20 m 6,0 Q 11.175,20 10.588,19.413 10.001,18.826 10,18 9.999,17.174 10.588,16.588 11.177,16.002 12,16 12.823,15.998 13.413,16.588 14.003,17.178 14,18 13.997,18.822 13.413,19.413 12.829,20.004 12,20 m 6,0 Q 17.175,20 16.588,19.413 16.001,18.826 16,18 15.999,17.174 16.588,16.588 17.177,16.002 18,16 18.823,15.998 19.413,16.588 20.003,17.178 20,18 19.997,18.822 19.413,19.413 18.829,20.004 18,20 M 6,14 Q 5.175,14 4.588,13.413 4.001,12.826 4,12 3.999,11.174 4.588,10.588 5.177,10.002 6,10 6.823,9.998 7.413,10.588 8.003,11.178 8,12 7.997,12.822 7.413,13.413 6.829,14.004 6,14 m 6,0 Q 11.175,14 10.588,13.413 10.001,12.826 10,12 9.999,11.174 10.588,10.588 11.177,10.002 12,10 12.823,9.998 13.413,10.588 14.003,11.178 14,12 13.997,12.822 13.413,13.413 12.829,14.004 12,14 m 6,0 Q 17.175,14 16.588,13.413 16.001,12.826 16,12 15.999,11.174 16.588,10.588 17.177,10.002 18,10 18.823,9.998 19.413,10.588 20.003,11.178 20,12 19.997,12.822 19.413,13.413 18.829,14.004 18,14 M 6,8 Q 5.175,8 4.588,7.413 4.001,6.826 4,6 3.999,5.174 4.588,4.588 5.177,4.002 6,4 6.823,3.998 7.413,4.588 8.003,5.178 8,6 7.997,6.822 7.413,7.413 6.829,8.004 6,8 m 6,0 Q 11.175,8 10.588,7.413 10.001,6.826 10,6 9.999,5.174 10.588,4.588 11.177,4.002 12,4 12.823,3.998 13.413,4.588 14.003,5.178 14,6 13.997,6.822 13.413,7.413 12.829,8.004 12,8 m 6,0 Q 17.175,8 16.588,7.413 16.001,6.826 16,6 15.999,5.174 16.588,4.588 17.177,4.002 18,4 18.823,3.998 19.413,4.588 20.003,5.178 20,6 19.997,6.822 19.413,7.413 18.829,8.004 18,8"
             transform="translate(-12,-12)"
             fill="#ffffff"
             fill-opacity="0.95"
             id="path22" />
        </g>
      </g>
      <g
         id="g6"
         transform="matrix(1.1551645,0,0,1.1551645,-94.516919,11.59459)">
        <circle
           style="fill:url(#gradient-scripture);fill-opacity:0.95;stroke:none;stroke-width:224.386;stroke-linecap:round;stroke-linejoin:bevel;stroke-opacity:1"
           id="circle-scripture"
           cx="1020"
           cy="440"
           r="58" />
        <g
           id="icon-scripture"
           transform="matrix(0.08984375,0,0,0.08984375,1020,440)">
          <path
             d="M 192,576 C 139,576 96,533 96,480 V 160 c 0,-53 43,-96 96,-96 h 304 c 26.5,0 48,21.5 48,48 v 288 c 0,20.9 -13.4,38.7 -32,45.3 V 512 c 17.7,0 32,14.3 32,32 0,17.7 -14.3,32 -32,32 z m 0,-128 c -17.7,0 -32,14.3 -32,32 0,17.7 14.3,32 32,32 h 256 v -64 z m 96,-304 v 48 h -48 c -8.8,0 -16,7.2 -16,16 v 32 c 0,8.8 7.2,16 16,16 h 48 v 112 c 0,8.8 7.2,16 16,16 h 32 c 8.8,0 16,-7.2 16,-16 V 256 h 48 c 8.8,0 16,-7.2 16,-16 v -32 c 0,-8.8 -7.2,-16 -16,-16 h -48 v -48 c 0,-8.8 -7.2,-16 -16,-16 h -32 c -8.8,0 -16,7.2 -16,16"
             transform="translate(-320,-320)"
             fill="#ffffff"
             fill-opacity="0.95"
             id="path23" />
        </g>
      </g>
      <g
         id="g7"
         transform="translate(-122.35464,-3.5642465)">
        <circle
           style="fill:url(#gradient-other);fill-opacity:0.95;stroke:none;stroke-width:224.386;stroke-linecap:round;stroke-linejoin:bevel;stroke-opacity:1"
           id="circle-other"
           cx="920"
           cy="550"
           r="52" />
        <g
           id="icon-other"
           transform="matrix(2.0999998,0,0,2.0999998,920,550)">
          <path
             d="M 12,22 Q 11.175,22 10.588,21.413 10.001,20.826 10,20 V 12 Q 10,11.175 10.588,10.588 11.176,10.001 12,10 h 8 q 0.825,0 1.413,0.588 Q 22.001,11.176 22,12 v 8 q 0,0.825 -0.587,1.413 Q 20.826,22.001 20,22 Z M 6,18 V 8 Q 6,7.175 6.588,6.588 7.176,6.001 8,6 H 18 V 8 H 8 V 18 Z M 2,14 V 4 Q 2,3.175 2.588,2.588 3.176,2.001 4,2 H 14 V 4 H 4 v 10 z"
             transform="translate(-12,-12)"
             fill="#ffffff"
             fill-opacity="0.95"
             id="path24" />
        </g>
      </g>
    </g>
    <text
       xml:space="preserve"
       style="font-style:italic;font-variant:normal;font-weight:bold;font-stretch:normal;font-size:133.333px;line-height:normal;font-family:Arial;-inkscape-font-specification:'Arial Bold Italic';text-align:center;text-decoration-color:#000000;letter-spacing:1px;writing-mode:lr-tb;direction:ltr;text-anchor:middle;white-space:pre;fill:#ffffff;fill-opacity:1;stroke-width:373.976;stroke-linecap:round;stroke-linejoin:bevel"
       x="591.69922"
       y="203.13785"
       id="text3"><tspan
         sodipodi:role="line"
         id="tspan3"
         x="592.19922"
         y="203.13785">Why?</tspan></text>
  </g>
</svg>
